<svg xmlns="http://www.w3.org/2000/svg" width="29.765" height="39" viewBox="0 0 29.765 39">
  <g id="hand" transform="translate(-60.618)">
    <g id="Grupo_1679" data-name="Grupo 1679" transform="translate(60.618)">
      <path id="Caminho_1641" data-name="Caminho 1641" d="M85.8,0a4.584,4.584,0,0,0-4.579,4.579V7.485a4.567,4.567,0,0,0-5.724.939,4.567,4.567,0,0,0-5.724-.939V4.579a4.579,4.579,0,0,0-9.159,0V26.407A12.607,12.607,0,0,0,73.211,39H77.79A12.607,12.607,0,0,0,90.383,26.407V4.579A4.584,4.584,0,0,0,85.8,0ZM76.645,11.448a2.29,2.29,0,1,1,4.579,0V16.72a4.549,4.549,0,0,0-2.29-.616h-2.29Zm-6.869,0a2.29,2.29,0,0,1,4.579,0V16.1H69.777V11.448ZM62.908,4.579a2.29,2.29,0,1,1,4.579,0V16.186a8,8,0,0,0-4.579,2.329V4.579ZM88.094,26.407a10.315,10.315,0,0,1-10.3,10.3H73.211a10.315,10.315,0,0,1-10.3-10.3v-2.29a5.731,5.731,0,0,1,5.724-5.724h10.3a2.29,2.29,0,1,1,0,4.579h-10.3a1.145,1.145,0,1,0,0,2.29,8.023,8.023,0,0,1,8.014,8.014,1.145,1.145,0,1,0,2.29,0A10.288,10.288,0,0,0,75.1,25.262h3.835a4.584,4.584,0,0,0,4.579-4.579V4.579a2.29,2.29,0,1,1,4.579,0V26.407Z" transform="translate(-60.618)"/>
    </g>
  </g>
</svg>
