<svg xmlns="http://www.w3.org/2000/svg" width="28.592" height="34.858" viewBox="0 0 28.592 34.858">
  <g id="ic_apple" transform="translate(-46.022)">
    <path id="Caminho_1693" data-name="Caminho 1693" d="M55.5,144.785c-5.188-.03-9.479-10.62-9.479-16.014,0-8.81,6.609-10.739,9.156-10.739a10.536,10.536,0,0,1,3.455.85,7.722,7.722,0,0,0,1.973.565,6.139,6.139,0,0,0,1.415-.459,11.342,11.342,0,0,1,4.265-1.031h.01a8.743,8.743,0,0,1,7.316,3.695l.534.8-.768.579a6.462,6.462,0,0,0-3.1,5.329,6.014,6.014,0,0,0,3.356,5.56c.481.289.978.587.978,1.24,0,.426-3.4,9.57-8.334,9.57a6.7,6.7,0,0,1-2.814-.683,5.707,5.707,0,0,0-2.505-.6,6.444,6.444,0,0,0-1.984.537,9.716,9.716,0,0,1-3.441.8Z" transform="translate(0 -109.927)" fill="#fff"/>
    <path id="Caminho_1694" data-name="Caminho 1694" d="M261.7,0c.129,4.635-3.186,7.85-6.5,7.649C254.661,3.95,258.517,0,261.7,0Z" transform="translate(-194.894)" fill="#fff"/>
  </g>
</svg>
