<svg xmlns="http://www.w3.org/2000/svg" width="18.758" height="18.761" viewBox="0 0 18.758 18.761">
  <g id="ic_busca" transform="translate(-1120.848 -27.949)">
    <path id="Icon_awesome-search" data-name="Icon awesome-search" d="M18.5,16.22,14.85,12.567a.879.879,0,0,0-.623-.256h-.6a7.617,7.617,0,1,0-1.319,1.319v.6a.879.879,0,0,0,.256.623L16.22,18.5a.876.876,0,0,0,1.242,0L18.5,17.466A.883.883,0,0,0,18.5,16.22ZM7.621,12.311a4.69,4.69,0,1,1,4.69-4.69A4.687,4.687,0,0,1,7.621,12.311Z" transform="translate(1120.848 27.949)" fill="#fff"/>
  </g>
</svg>
