<svg xmlns="http://www.w3.org/2000/svg" width="35.356" height="35.356" viewBox="0 0 35.356 35.356">
  <g id="ic_banner_fechar" transform="translate(-795.822 -294)">
    <g id="Grupo_1566" data-name="Grupo 1566" transform="translate(813.5 294) rotate(45)">
      <path id="Subtração_2" data-name="Subtração 2" d="M12.5,25A12.5,12.5,0,0,1,3.661,3.661,12.5,12.5,0,0,1,21.339,21.339,12.418,12.418,0,0,1,12.5,25ZM6.627,11.611a1.151,1.151,0,0,0,0,2.3h4.984V18.9a1.15,1.15,0,1,0,2.3,0V13.912H18.9a1.151,1.151,0,0,0,0-2.3H13.912V6.627a1.15,1.15,0,1,0-2.3,0v4.984Z" fill="#1a1d29"/>
    </g>
  </g>
</svg>
