<svg xmlns="http://www.w3.org/2000/svg" xmlns:xlink="http://www.w3.org/1999/xlink" width="29" height="30" viewBox="0 0 29 30">
  <defs>
    <clipPath id="clip-path">
      <path id="heart" d="M9.013,16.037a1.057,1.057,0,0,1-.7-.262c-.728-.637-1.43-1.235-2.05-1.763l0,0a38.119,38.119,0,0,1-4.475-4.2A6.709,6.709,0,0,1,0,5.417,5.634,5.634,0,0,1,1.43,1.569,4.847,4.847,0,0,1,5.036,0,4.534,4.534,0,0,1,7.868.978a5.8,5.8,0,0,1,1.145,1.2,5.8,5.8,0,0,1,1.145-1.2A4.534,4.534,0,0,1,12.99,0,4.847,4.847,0,0,1,16.6,1.569a5.634,5.634,0,0,1,1.43,3.848,6.708,6.708,0,0,1-1.788,4.392,38.115,38.115,0,0,1-4.475,4.2c-.621.529-1.324,1.128-2.054,1.766a1.058,1.058,0,0,1-.7.262ZM5.036,1.056A3.8,3.8,0,0,0,2.206,2.285a4.583,4.583,0,0,0-1.15,3.132A5.645,5.645,0,0,0,2.6,9.135a37.512,37.512,0,0,0,4.347,4.071l0,0c.622.53,1.327,1.131,2.06,1.772.738-.643,1.444-1.244,2.067-1.775a37.521,37.521,0,0,0,4.347-4.07A5.646,5.646,0,0,0,16.97,5.417a4.583,4.583,0,0,0-1.15-3.132A3.8,3.8,0,0,0,12.99,1.056a3.5,3.5,0,0,0-2.186.757,5.124,5.124,0,0,0-1.218,1.41.667.667,0,0,1-1.145,0,5.119,5.119,0,0,0-1.218-1.41,3.5,3.5,0,0,0-2.186-.757Zm0,0" transform="translate(0 0)" fill="#fff"/>
    </clipPath>
  </defs>
  <g id="ic_curtir_off" transform="translate(-397 -413)">
    <g id="coracao_vazio" transform="translate(402.691 420.224)" clip-path="url(#clip-path)">
      <path id="heart_1_" data-name="heart (1)" d="M16.6,1.569A4.847,4.847,0,0,0,12.991,0a4.535,4.535,0,0,0-2.832.978,5.8,5.8,0,0,0-1.145,1.2A5.791,5.791,0,0,0,7.868.978,4.534,4.534,0,0,0,5.036,0,4.847,4.847,0,0,0,1.43,1.569,5.634,5.634,0,0,0,0,5.417,6.709,6.709,0,0,0,1.788,9.809a38.123,38.123,0,0,0,4.475,4.2c.62.529,1.323,1.128,2.053,1.766a1.058,1.058,0,0,0,1.393,0c.73-.638,1.433-1.238,2.054-1.766a38.1,38.1,0,0,0,4.475-4.2,6.709,6.709,0,0,0,1.788-4.392A5.634,5.634,0,0,0,16.6,1.569Zm0,0" transform="translate(0 0)" fill="#fff"/>
    </g>
    <g id="Elipse_1108" data-name="Elipse 1108" transform="translate(397 413)" fill="none" stroke="#fff" stroke-width="0.5">
      <ellipse cx="14.5" cy="15" rx="14.5" ry="15" stroke="none"/>
      <ellipse cx="14.5" cy="15" rx="14.25" ry="14.75" fill="none"/>
    </g>
  </g>
</svg>
