<svg xmlns="http://www.w3.org/2000/svg" width="25" height="25" viewBox="0 0 25 25">
  <path id="ic_compartilhar_com_amigos" d="M12.5,25A12.5,12.5,0,0,1,3.661,3.661,12.5,12.5,0,0,1,21.339,21.339,12.418,12.418,0,0,1,12.5,25ZM9.8,15.2h0l3.156,1.972a2.957,2.957,0,1,0,2.886-2.315A2.93,2.93,0,0,0,14,15.5l-3.155-1.972a3.019,3.019,0,0,0,0-1.284L14,10.269a2.924,2.924,0,0,0,1.841.644A2.954,2.954,0,1,0,12.954,8.6L9.8,10.571a2.924,2.924,0,0,0-1.841-.644,2.957,2.957,0,0,0,0,5.913A2.92,2.92,0,0,0,9.8,15.2Z" fill="#31343e"/>
</svg>
