<svg xmlns="http://www.w3.org/2000/svg" width="21.969" height="21.969" viewBox="0 0 21.969 21.969">
  <path id="ic_carrinho" d="M8.091,20.575a2.2,2.2,0,1,0,2.2,2.2A2.194,2.194,0,0,0,8.091,20.575ZM1.5,3V5.2H3.7l3.954,8.337L6.168,16.225a2.124,2.124,0,0,0-.275,1.055,2.2,2.2,0,0,0,2.2,2.2H21.272v-2.2H8.552a.272.272,0,0,1-.275-.275l.033-.132.989-1.79h8.183A2.186,2.186,0,0,0,19.4,13.952l3.932-7.129a1.073,1.073,0,0,0,.132-.527,1.1,1.1,0,0,0-1.1-1.1H6.124L5.092,3ZM19.075,20.575a2.2,2.2,0,1,0,2.2,2.2A2.194,2.194,0,0,0,19.075,20.575Z" transform="translate(-1.5 -3)" fill="#fff"/>
</svg>
