<svg xmlns="http://www.w3.org/2000/svg" width="19.525" height="22.315" viewBox="0 0 19.525 22.315">
  <path id="ic_calendario" d="M0,20.223a2.093,2.093,0,0,0,2.092,2.092H17.433a2.093,2.093,0,0,0,2.092-2.092V8.368H0Zm2.789-8.368a.7.7,0,0,1,.7-.7H7.671a.7.7,0,0,1,.7.7v4.184a.7.7,0,0,1-.7.7H3.487a.7.7,0,0,1-.7-.7ZM17.433,2.789H15.341V.7a.7.7,0,0,0-.7-.7H13.249a.7.7,0,0,0-.7.7V2.789H6.973V.7a.7.7,0,0,0-.7-.7H4.881a.7.7,0,0,0-.7.7V2.789H2.092A2.093,2.093,0,0,0,0,4.881V6.973H19.525V4.881A2.093,2.093,0,0,0,17.433,2.789Z" fill="#fff"/>
</svg>
