<svg xmlns="http://www.w3.org/2000/svg" width="25.414" height="19.767" viewBox="0 0 25.414 19.767">
  <g id="ic_concluir_compra" transform="translate(-50 -407)">
    <path id="Icon_awesome-credit-card" data-name="Icon awesome-credit-card" d="M0,19.9a2.118,2.118,0,0,0,2.118,2.118H23.3A2.118,2.118,0,0,0,25.414,19.9V12.133H0Zm8.471-3A.531.531,0,0,1,9,16.369h6a.531.531,0,0,1,.529.529v1.765a.531.531,0,0,1-.529.529H9a.531.531,0,0,1-.529-.529Zm-5.648,0a.531.531,0,0,1,.529-.529H6.53a.531.531,0,0,1,.529.529v1.765a.531.531,0,0,1-.529.529H3.353a.531.531,0,0,1-.529-.529ZM25.414,4.368V6.486H0V4.368A2.118,2.118,0,0,1,2.118,2.25H23.3A2.118,2.118,0,0,1,25.414,4.368Z" transform="translate(50 404.75)" fill="#31343e"/>
  </g>
</svg>
