<svg xmlns="http://www.w3.org/2000/svg" width="25" height="25" viewBox="0 0 25 25">
  <path id="ic_expandir" d="M1239.5-1276a12.419,12.419,0,0,1-8.839-3.661A12.419,12.419,0,0,1,1227-1288.5a12.419,12.419,0,0,1,3.661-8.839A12.419,12.419,0,0,1,1239.5-1301a12.419,12.419,0,0,1,8.839,3.661A12.419,12.419,0,0,1,1252-1288.5a12.419,12.419,0,0,1-3.661,8.839A12.419,12.419,0,0,1,1239.5-1276Zm-5.873-13.389a1.153,1.153,0,0,0-1.15,1.151,1.152,1.152,0,0,0,1.15,1.15h4.985v4.984a1.147,1.147,0,0,0,.337.814,1.147,1.147,0,0,0,.814.337,1.152,1.152,0,0,0,1.15-1.151v-4.984h4.985a1.152,1.152,0,0,0,1.15-1.15,1.153,1.153,0,0,0-1.15-1.151h-4.985v-4.984a1.152,1.152,0,0,0-1.15-1.15,1.151,1.151,0,0,0-1.15,1.15v4.984Z" transform="translate(-1227 1301)" fill="#fff"/>
</svg>
