<svg id="ic_google" xmlns="http://www.w3.org/2000/svg" width="30.01" height="30.01" viewBox="0 0 30.01 30.01">
  <path id="Caminho_1687" data-name="Caminho 1687" d="M280.35,211.48H268.11a.979.979,0,0,0-.979.979v3.91a.979.979,0,0,0,.979.979H275a9.2,9.2,0,0,1-3.961,4.642l2.939,5.088a14.713,14.713,0,0,0,7.5-12.867,9.918,9.918,0,0,0-.169-1.922A.983.983,0,0,0,280.35,211.48Z" transform="translate(-251.474 -199.084)" fill="#167ee6"/>
  <path id="Caminho_1688" data-name="Caminho 1688" d="M47.4,338.418a9.132,9.132,0,0,1-7.9-4.571l-5.088,2.933a14.993,14.993,0,0,0,20.491,5.5v-.007l-2.939-5.088A9.065,9.065,0,0,1,47.4,338.418Z" transform="translate(-32.394 -314.279)" fill="#12b347"/>
  <path id="Caminho_1689" data-name="Caminho 1689" d="M263.5,395.874v-.007l-2.939-5.088A9.066,9.066,0,0,1,256,392.013v5.872A14.979,14.979,0,0,0,263.5,395.874Z" transform="translate(-240.995 -367.874)" fill="#0f993e"/>
  <path id="Caminho_1690" data-name="Caminho 1690" d="M5.872,135.615A9.065,9.065,0,0,1,7.1,131.052l-5.088-2.933a14.936,14.936,0,0,0,0,14.991L7.1,140.177A9.066,9.066,0,0,1,5.872,135.615Z" transform="translate(0 -120.61)" fill="#ffd500"/>
  <path id="Caminho_1691" data-name="Caminho 1691" d="M47.4,5.872a9.091,9.091,0,0,1,5.8,2.082.975.975,0,0,0,1.312-.059L57.28,5.124a.986.986,0,0,0-.056-1.442A14.972,14.972,0,0,0,34.411,7.509L39.5,10.442A9.132,9.132,0,0,1,47.4,5.872Z" transform="translate(-32.394)" fill="#ff4b26"/>
  <path id="Caminho_1692" data-name="Caminho 1692" d="M261.8,7.953a.975.975,0,0,0,1.312-.059l2.771-2.771a.986.986,0,0,0-.056-1.442A14.96,14.96,0,0,0,256,0V5.872A9.091,9.091,0,0,1,261.8,7.953Z" transform="translate(-240.995 0)" fill="#d93f21"/>
</svg>
