<svg xmlns="http://www.w3.org/2000/svg" width="16.916" height="19.333" viewBox="0 0 16.916 19.333">
  <path id="ic_lixeira" d="M1.208,17.52a1.812,1.812,0,0,0,1.812,1.812H13.9a1.812,1.812,0,0,0,1.812-1.812V4.833H1.208Zm10.27-9.666a.6.6,0,0,1,1.208,0v8.458a.6.6,0,0,1-1.208,0Zm-3.625,0a.6.6,0,0,1,1.208,0v8.458a.6.6,0,0,1-1.208,0Zm-3.625,0a.6.6,0,0,1,1.208,0v8.458a.6.6,0,0,1-1.208,0ZM16.312,1.208H11.781L11.426.5a.906.906,0,0,0-.812-.5H6.3A.9.9,0,0,0,5.49.5l-.355.706H.6a.6.6,0,0,0-.6.6V3.021a.6.6,0,0,0,.6.6H16.312a.6.6,0,0,0,.6-.6V1.812A.6.6,0,0,0,16.312,1.208Z" fill="#fff"/>
</svg>
