<svg xmlns="http://www.w3.org/2000/svg" width="25" height="25" viewBox="0 0 25 25">
  <path id="ic_minimizar" d="M1239.5-1276a12.419,12.419,0,0,1-8.839-3.661A12.418,12.418,0,0,1,1227-1288.5a12.418,12.418,0,0,1,3.661-8.839A12.419,12.419,0,0,1,1239.5-1301a12.422,12.422,0,0,1,8.839,3.661A12.418,12.418,0,0,1,1252-1288.5a12.422,12.422,0,0,1-3.661,8.839A12.422,12.422,0,0,1,1239.5-1276Zm-6.555-13.414a1.068,1.068,0,0,0-1.068,1.066,1.069,1.069,0,0,0,1.068,1.067h13.11a1.068,1.068,0,0,0,1.067-1.067,1.068,1.068,0,0,0-1.067-1.066Z" transform="translate(-1227 1301)" fill="#fff"/>
</svg>
