<svg xmlns="http://www.w3.org/2000/svg" width="44.239" height="44.238" viewBox="0 0 44.239 44.238">
  <g id="ic_mpb" transform="translate(-31.934 -31.367)">
    <path id="Caminho_1642" data-name="Caminho 1642" d="M76.173,39.686c-.684.763-.878.739-2.106-.26l-.485.427c.472.574,1.279,1.035.562,1.873-.4.466-.8.334-1.858-.545-.234.222-.473.442-.7.67a2.475,2.475,0,0,1-1.539.663.764.764,0,0,0-.433.16c-2.059,2.044-4.108,4.1-6.08,6.069a37.034,37.034,0,0,1,1.82,3.333,6.7,6.7,0,0,1-.411,6.372,6.147,6.147,0,0,1-3.218,2.577c-.624.238-1.252.461-1.873.706a2.013,2.013,0,0,0-1.312,1.52q-.371,1.719-.767,3.431A12.527,12.527,0,0,1,53.8,73.49a8.161,8.161,0,0,1-4.414,2.037,1.144,1.144,0,0,0-.227.079H47.4a.669.669,0,0,0-.175-.074,11.8,11.8,0,0,1-4.582-1.593,27.639,27.639,0,0,1-7.3-6.509,14.908,14.908,0,0,1-3.064-5.677c-.135-.5-.231-1.008-.345-1.513v-1.86c.08-.363.151-.727.242-1.087A9.833,9.833,0,0,1,36.8,51.408a15.267,15.267,0,0,1,5.393-1.932c.718-.143,1.429-.325,2.143-.487a1.963,1.963,0,0,0,1.439-1.205c.223-.524.456-1.047.631-1.587a6.527,6.527,0,0,1,8.784-4.089,35.664,35.664,0,0,1,3.548,1.815l-.042.152c.1-.092.216-.178.314-.276q2.855-2.852,5.7-5.715a1.29,1.29,0,0,0,.314-.662A2.61,2.61,0,0,1,65.74,35.9c.209-.2.406-.422.625-.651-.425-.56-1.316-1-.569-1.868.4-.466.8-.334,1.878.546l.435-.415a6.123,6.123,0,0,1-.764-1.058c-.216-.487.141-.816.509-1.089h.685l.829.741,1.52-.741h.881a10.87,10.87,0,0,1,4.4,4.4v.881l-.747,1.521.747.828Q76.173,39.343,76.173,39.686ZM62.153,50.117c-2.045,2.046-4.045,4.036-6.027,6.043a1.512,1.512,0,0,0-.384.748,4.412,4.412,0,1,1-5.094-5.114,1.512,1.512,0,0,0,.744-.392c1.916-1.89,3.814-3.8,5.716-5.7.1-.1.184-.205.276-.308a9.8,9.8,0,0,0-3.417-1.814,4.717,4.717,0,0,0-5.8,2.955c-.192.587-.416,1.166-.659,1.734a4.118,4.118,0,0,1-3.039,2.58c-.843.181-1.694.328-2.543.486a11.109,11.109,0,0,0-6.362,3.372,6.415,6.415,0,0,0-1.789,5.469,10.74,10.74,0,0,0,1.35,3.8,25.208,25.208,0,0,0,5.683,6.475,14.917,14.917,0,0,0,4.51,2.788,6.709,6.709,0,0,0,7.243-1.024,9.6,9.6,0,0,0,3.031-4.423,26.887,26.887,0,0,0,.887-3.848,4.7,4.7,0,0,1,3.59-4.213,9.874,9.874,0,0,0,1.332-.479,4.375,4.375,0,0,0,2.737-3.86C64.319,53.356,63.351,51.715,62.153,50.117ZM55.473,54.4c.185-.228.288-.378.413-.5Q58.762,51,61.643,48.1q3.6-3.6,7.2-7.188a.483.483,0,0,1,.586-.171.861.861,0,0,0,.979-.235c1.227-1.24,2.468-2.466,3.7-3.706a.726.726,0,0,0,.007-1.188q-1.078-1.1-2.179-2.179a.731.731,0,0,0-1.189-.008c-1.252,1.239-2.506,2.476-3.725,3.746a1.079,1.079,0,0,0-.227.827.78.78,0,0,1-.254.8q-6.451,6.414-12.887,12.843a4.655,4.655,0,0,1-.566.4A4.836,4.836,0,0,1,55.473,54.4ZM51.4,58.783a2.648,2.648,0,1,0-2.641-2.622A2.627,2.627,0,0,0,51.4,58.783Z" transform="translate(0 0)" fill-rule="evenodd"/>
    <path id="Caminho_1643" data-name="Caminho 1643" d="M66.049,123.366a2.107,2.107,0,0,1-.231.415c-.311.333-.639.651-.964.97a.514.514,0,0,1-.813-.005q-3.093-3.09-6.184-6.181a.528.528,0,0,1,0-.848c.277-.276.55-.555.83-.828.4-.392.634-.4,1.03,0q2.248,2.242,4.491,4.489c.507.506,1.019,1.008,1.517,1.523A3.474,3.474,0,0,1,66.049,123.366Z" transform="translate(-17.393 -57.657)" fill-rule="evenodd"/>
    <path id="Caminho_1644" data-name="Caminho 1644" d="M142.362,44.4c-.158-.125-.371-.209-.4-.337a.722.722,0,0,1,.107-.563c.348-.408.747-.773,1.127-1.153.668-.669,1.34-1.334,2-2.007.249-.252.524-.381.8-.1s.123.559-.121.8c-1.017,1.012-2.028,2.03-3.047,3.039A3.174,3.174,0,0,1,142.362,44.4Z" transform="translate(-74.425 -5.893)" fill-rule="evenodd"/>
    <path id="Caminho_1645" data-name="Caminho 1645" d="M147.439,49.447c-.151-.117-.387-.213-.4-.327a.916.916,0,0,1,.168-.644c.761-.806,1.556-1.579,2.34-2.363.253-.254.508-.506.761-.761s.515-.313.771-.06.164.5-.06.729c-1.044,1.054-2.086,2.111-3.137,3.158A2.311,2.311,0,0,1,147.439,49.447Z" transform="translate(-77.873 -9.313)" fill-rule="evenodd"/>
  </g>
</svg>
