<svg xmlns="http://www.w3.org/2000/svg" width="66" height="65.999" viewBox="0 0 66 65.999">
  <path id="ic_novo" d="M1273.669-1221.331a32.893,32.893,0,0,1-12.418-2.416,32.793,32.793,0,0,1-10.916-7.249,32.8,32.8,0,0,1-7.25-10.917,32.89,32.89,0,0,1-2.416-12.418,32.89,32.89,0,0,1,2.416-12.418,32.8,32.8,0,0,1,7.25-10.917,32.793,32.793,0,0,1,10.917-7.249,32.892,32.892,0,0,1,12.418-2.416,32.892,32.892,0,0,1,12.418,2.416,32.793,32.793,0,0,1,10.917,7.249,32.8,32.8,0,0,1,7.249,10.917,32.893,32.893,0,0,1,2.416,12.418,32.893,32.893,0,0,1-2.416,12.418A32.8,32.8,0,0,1,1297-1231a32.794,32.794,0,0,1-10.917,7.249A32.892,32.892,0,0,1,1273.669-1221.331Zm-13.527-37.113a2,2,0,0,0-2,2v.9a2,2,0,0,0,2,2h11.075v11.075a1.988,1.988,0,0,0,.586,1.415,1.986,1.986,0,0,0,1.414.585h.9a2,2,0,0,0,2-2v-11.075H1287.2a2,2,0,0,0,2-2v-.9a2,2,0,0,0-2-2H1276.12v-11.075a2,2,0,0,0-2-2h-.9a2,2,0,0,0-2,2v11.075Z" transform="translate(-1240.669 1287.331)" fill="#fff"/>
</svg>
