<svg xmlns="http://www.w3.org/2000/svg" width="39.283" height="39.273" viewBox="0 0 39.283 39.273">
  <g id="ic_samba" transform="translate(-45.183 -44.62)">
    <path id="Caminho_1646" data-name="Caminho 1646" d="M62.031,90.371a16.759,16.759,0,0,1-5.857-5.009c.131-.069.262-.2.387-.2a16,16,0,0,0,8.608-2.524,49.506,49.506,0,0,0,18.7-18.683,15.7,15.7,0,0,0,2.515-8.709,2.507,2.507,0,0,1,.171-.567c1.769,2.039,4.118,3.368,4.992,5.984V63.01c-.45,1.352-.807,2.743-1.366,4.049a36.261,36.261,0,0,1-6.765,10.2c-5.465,5.959-11.4,11.265-19.621,13.112ZM83.81,69.259l-4.592,5.751a3.761,3.761,0,0,0,4.428-1.383A3.429,3.429,0,0,0,83.81,69.259Zm-7.577,8.733L70.611,82.51c.749.994,2.29,1.089,3.7.264A3.886,3.886,0,0,0,76.232,77.991Zm-16.4,9.256A1.724,1.724,0,0,0,60.973,88.8a3.465,3.465,0,0,0,3.425-.376,3.971,3.971,0,0,0,2.029-3.258ZM86.374,65.233a4.272,4.272,0,0,0,3.353-2.213,3.207,3.207,0,0,0,.118-3.517,5.3,5.3,0,0,0-1.359-1.062Z" transform="translate(-7.077 -6.478)" fill-rule="evenodd"/>
    <path id="Caminho_1647" data-name="Caminho 1647" d="M45.183,72.557a47.78,47.78,0,0,1,2.109-6.034A47.52,47.52,0,0,1,60.565,50.86a30.6,30.6,0,0,1,10.148-5.707,12.286,12.286,0,0,1,2.677-.515c3.155-.224,5.089,1.736,4.829,4.892a16.691,16.691,0,0,1-2.2,6.626A49.822,49.822,0,0,1,58.965,74.172a21.748,21.748,0,0,1-7.2,3.183c-3.781.821-5.36-.062-6.586-3.625Q45.183,73.144,45.183,72.557Zm1.5-.114c-.054,2.265.886,3.278,2.922,2.931a18.5,18.5,0,0,0,5.2-1.545A46.122,46.122,0,0,0,73.2,56.552a16.752,16.752,0,0,0,2.819-7.418c.2-2.332-.853-3.461-3.156-3.084a15.979,15.979,0,0,0-4.553,1.36A45.715,45.715,0,0,0,48.5,66.718,13.218,13.218,0,0,0,46.681,72.444Z" fill-rule="evenodd"/>
    <path id="Caminho_1648" data-name="Caminho 1648" d="M51.237,140.828a2.367,2.367,0,0,1-2.788-.356,1.648,1.648,0,0,1-.594-1.831c.134-.433.39-.774.83-.363C49.554,139.09,50.371,139.957,51.237,140.828Z" transform="translate(-1.667 -60.183)" fill-rule="evenodd"/>
    <path id="Caminho_1649" data-name="Caminho 1649" d="M141.6,50.319l-2.857-2.984a1.559,1.559,0,0,1,2.037-.048A2.585,2.585,0,0,1,141.6,50.319Z" transform="translate(-60.241 -1.489)" fill-rule="evenodd"/>
  </g>
</svg>
