<svg id="ic_site" xmlns="http://www.w3.org/2000/svg" width="23.301" height="23.298" viewBox="0 0 23.301 23.298">
  <path id="Caminho_1599" data-name="Caminho 1599" d="M16.515,24.55c.245-.163.485-.331.733-.485a13.535,13.535,0,0,1,3.016-1.4c.2-.066.409-.116.614-.175a.089.089,0,0,1,.123.048,1.536,1.536,0,0,0,2.248.6c.181.175.366.351.547.531a23.579,23.579,0,0,1,1.787,1.989c.188.235.362.481.548.717.043.055.035.089,0,.143a1.549,1.549,0,0,0,.148,2.016.088.088,0,0,1,.015.13,15.429,15.429,0,0,1-1.609,2.131,16.859,16.859,0,0,1-2.828,2.492,19.287,19.287,0,0,1-3.177,1.793,22.366,22.366,0,0,1-3,1.074.228.228,0,0,1-.163-.025c-.192-.114-.38-.236-.565-.362a.2.2,0,0,1-.079-.121,18.3,18.3,0,0,1-.285-2.438c-.028-.755-.051-1.513-.042-2.268a16.256,16.256,0,0,1,.189-2.337c.087-.558.192-1.113.287-1.67.01-.063.034-.084.1-.083a1.552,1.552,0,0,0,1.418-2.24Z" transform="translate(-9.904 -14.513)" fill="#fff" fill-rule="evenodd"/>
  <path id="Caminho_1600" data-name="Caminho 1600" d="M19.389,45.636l.622-.21a21.354,21.354,0,0,0,2.219-.9,20.144,20.144,0,0,0,2.064-1.131A17.953,17.953,0,0,0,26.922,41.4a15.752,15.752,0,0,0,1.96-2.125c.317-.415.6-.86.89-1.295a.154.154,0,0,1,.158-.079,4.673,4.673,0,0,0,.548-.005c.065,0,.1,0,.129.062a22.2,22.2,0,0,1,1.109,2.464,18.6,18.6,0,0,1,.8,2.732.688.688,0,0,1,.033.155.2.2,0,0,1-.048.133c-.347.3-.685.621-1.051.9a12.749,12.749,0,0,1-1.146.779,11.193,11.193,0,0,1-3.281,1.323,11.839,11.839,0,0,1-3.49.276,11.856,11.856,0,0,1-4.077-1.058A.66.66,0,0,1,19.389,45.636Z" transform="translate(-12.714 -23.454)" fill="#fff" fill-rule="evenodd"/>
  <path id="Caminho_1601" data-name="Caminho 1601" d="M4.243,23.952c-.079-.25-.158-.5-.237-.744a11.175,11.175,0,0,1-.5-3.68,11.545,11.545,0,0,1,1.806-5.95A11.572,11.572,0,0,1,6.9,11.59a.146.146,0,0,1,.155-.042,19.069,19.069,0,0,1,2.324.666c.216.08.431.165.648.244a.084.084,0,0,1,.065.1,1.593,1.593,0,0,0,.343,1.174.1.1,0,0,1,.005.135A19.774,19.774,0,0,0,8.969,16.82c-.059.147-.123.291-.172.44a.194.194,0,0,1-.2.149A1.55,1.55,0,0,0,7.3,19.54a.142.142,0,0,1-.025.12c-.361.424-.747.829-1.085,1.27-.391.513-.754,1.048-1.1,1.59C4.792,22.98,4.53,23.464,4.243,23.952Z" transform="translate(-3.498 -8.167)" fill="#fff" fill-rule="evenodd"/>
  <path id="Caminho_1602" data-name="Caminho 1602" d="M34.745,10.329a1.608,1.608,0,0,0-.911.625.1.1,0,0,1-.09.03,13.138,13.138,0,0,0-1.828-.33c-.467-.047-.938-.058-1.408-.076a.158.158,0,0,1-.168-.112,1.543,1.543,0,0,0-2.317-.624.116.116,0,0,1-.162,0c-.557-.367-1.118-.73-1.678-1.092-.046-.03-.093-.048-.079-.123a1.523,1.523,0,0,0-.269-1.18.419.419,0,0,1-.02-.045c.222-.236.446-.479.674-.717A14.021,14.021,0,0,1,28.036,5.3,13.66,13.66,0,0,1,30.069,3.97a.2.2,0,0,1,.125-.021c.431.1.869.184,1.291.318.478.151.941.347,1.409.527a.257.257,0,0,1,.127.11c.248.482.511.958.728,1.454a11.588,11.588,0,0,1,.8,2.634C34.631,9.432,34.681,9.876,34.745,10.329Z" transform="translate(-16.441 -3.762)" fill="#fff" fill-rule="evenodd"/>
  <path id="Caminho_1603" data-name="Caminho 1603" d="M49.42,35.25c-.22-.712-.427-1.411-.651-2.1a16.837,16.837,0,0,0-1.013-2.409c-.1-.189-.193-.378-.284-.57a.122.122,0,0,1,.011-.109,1.562,1.562,0,0,0,.409-1.475,1.5,1.5,0,0,0-.512-.814c-.023-.019-.044-.038-.066-.058a13.873,13.873,0,0,0,.509-1.991.128.128,0,0,1,.078-.083,1.509,1.509,0,0,0,.829-.49.094.094,0,0,1,.139-.022A13.173,13.173,0,0,1,51,26.534c.371.3.723.622,1.084.933a.323.323,0,0,1,.122.273,11.533,11.533,0,0,1-2.28,6.86C49.766,34.822,49.588,35.036,49.42,35.25Z" transform="translate(-28.909 -16.033)" fill="#fff" fill-rule="evenodd"/>
  <path id="Caminho_1604" data-name="Caminho 1604" d="M51.267,16.35c-.22-.182-.438-.367-.661-.545a15.011,15.011,0,0,0-1.875-1.268c-.128-.074-.252-.151-.385-.213a.125.125,0,0,1-.083-.15,1.484,1.484,0,0,0-.6-1.379,2.492,2.492,0,0,0-.474-.251.113.113,0,0,1-.081-.11,12.89,12.89,0,0,0-.265-1.818,13.075,13.075,0,0,0-.958-2.8c-.018-.039-.033-.079-.052-.124a11.719,11.719,0,0,1,2.682,2.267,11.852,11.852,0,0,1,1.878,2.987A11.345,11.345,0,0,1,51.267,16.35Z" transform="translate(-28.052 -5.934)" fill="#fff" fill-rule="evenodd"/>
  <path id="Caminho_1605" data-name="Caminho 1605" d="M21.627,3.527c-.259.178-.5.327-.729.5-.485.379-.967.764-1.437,1.162A13.078,13.078,0,0,0,18.074,6.6a.123.123,0,0,1-.158.044,1.517,1.517,0,0,0-1.7.412.112.112,0,0,1-.148.032,22.757,22.757,0,0,0-2.5-.816c-.053-.015-.108-.023-.188-.039a11.616,11.616,0,0,1,8.241-2.71Z" transform="translate(-9.233 -3.508)" fill="#fff" fill-rule="evenodd"/>
  <path id="Caminho_1606" data-name="Caminho 1606" d="M9.211,40.662c-.167-.152-.315-.283-.458-.418a11.728,11.728,0,0,1-2.419-3.286.191.191,0,0,1,0-.186A18.906,18.906,0,0,1,7.792,34.26,16.608,16.608,0,0,1,9.4,32.254.369.369,0,0,1,9.5,32.2a.381.381,0,0,1,.02.121c-.077.421-.17.84-.236,1.264-.077.5-.158.994-.189,1.5-.055.861-.1,1.724-.1,2.586a19.13,19.13,0,0,0,.221,2.9A.832.832,0,0,1,9.211,40.662Z" transform="translate(-5.13 -20.15)" fill="#fff" fill-rule="evenodd"/>
  <path id="Caminho_1607" data-name="Caminho 1607" d="M36.665,21.591c.214,0,.431-.015.646,0,.442.039.884.082,1.323.148.343.051.681.139,1.022.205.082.016.106.054.107.132a1.528,1.528,0,0,0,.316.931,1.607,1.607,0,0,0,.713.528c-.026.132-.049.268-.084.4-.115.443-.236.884-.351,1.326-.024.092-.07.107-.163.11a3.6,3.6,0,0,0-.563.073.117.117,0,0,1-.144-.05,22.847,22.847,0,0,0-2.163-2.55c-.244-.249-.5-.487-.748-.73-.026-.026-.055-.047-.074-.063C36.56,21.893,36.611,21.745,36.665,21.591Z" transform="translate(-22.64 -13.992)" fill="#fff" fill-rule="evenodd"/>
  <path id="Caminho_1608" data-name="Caminho 1608" d="M17.875,20.76c-.068-.014-.088-.043-.061-.11.1-.247.187-.5.3-.744.263-.565.531-1.128.81-1.685.138-.275.3-.535.454-.8.033-.058.064-.059.124-.044a1.516,1.516,0,0,0,1.172-.136,2.276,2.276,0,0,0,.349-.264c.047-.041.077-.054.13-.02q.808.522,1.619,1.04a.082.082,0,0,1,.04.115c-.033.1-.048.215-.079.319a.125.125,0,0,1-.075.074,13.945,13.945,0,0,0-3.9,1.672c-.28.175-.551.364-.826.546Z" transform="translate(-11.794 -11.295)" fill="#fff" fill-rule="evenodd"/>
</svg>
