<svg xmlns="http://www.w3.org/2000/svg" width="24.306" height="20.829" viewBox="0 0 24.306 20.829">
  <path id="ic_senha_off" d="M14.406,8.883a5.51,5.51,0,0,1,5.527,5.484,5.275,5.275,0,0,1-.4,2.007l3.227,3.2a12.967,12.967,0,0,0,3.792-5.207A13.09,13.09,0,0,0,10,6.908l2.387,2.37A5.465,5.465,0,0,1,14.406,8.883ZM3.357,5.894l2.522,2.5.51.5A12.905,12.905,0,0,0,2.25,14.367a13.109,13.109,0,0,0,16.994,7.3l.466.461,3.238,3.2,1.4-1.394L4.756,4.5Zm6.108,6.059,1.714,1.7a3.107,3.107,0,0,0-.087.711,3.3,3.3,0,0,0,3.314,3.287,3.117,3.117,0,0,0,.716-.087l1.714,1.7a5.5,5.5,0,0,1-7.957-4.9A5.418,5.418,0,0,1,9.464,11.953Zm4.762-.852,3.482,3.455.022-.174A3.3,3.3,0,0,0,14.417,11.1Z" transform="translate(-2.25 -4.5)" fill="#707070"/>
</svg>
