<svg xmlns="http://www.w3.org/2000/svg" width="47.318" height="26.872" viewBox="0 0 47.318 26.872">
  <g id="ic_sertanejo" transform="translate(-28.233 -59.032)">
    <path id="Caminho_1650" data-name="Caminho 1650" d="M97.734,73.157a19.745,19.745,0,0,0-5.845-6.6,7.623,7.623,0,0,0-9.851.9.9.9,0,0,1-.154.1.97.97,0,0,1-.076-.1c-1.07-2.04-2.136-4.083-3.213-6.12a9.746,9.746,0,0,0-.731-1.206c-.588-.8-1.08-.9-1.87-.293a3.148,3.148,0,0,1-3.09.51c-.448-.144-.885-.322-1.337-.452A22.826,22.826,0,0,0,68.6,59.1c-1.982-.288-3.971.232-4.706,2.71-.443,1.493-.72,3.036-1.048,4.562a.519.519,0,0,0,.182.445,17.851,17.851,0,0,1,5.765,5.7c.989,1.423,1.939,2.872,2.89,4.321a.88.88,0,0,0,.72.453,26.633,26.633,0,0,0,6.295-.1,13.424,13.424,0,0,0,5.036-1.687.562.562,0,0,0,.33-.719c-.266-1.112-.445-2.244-.715-3.354-.2-.826-.488-1.631-.736-2.445a8.591,8.591,0,0,1,.712,1.545c.4,1.336.737,2.691,1.123,4.032a1.749,1.749,0,0,0,.385.68A9.979,9.979,0,0,0,88.88,77.92c.15.053.293.13.438.2l-.07.154-3.074-1.3c-3.337,3.593-7.57,3.736-12.121,3.074a10.052,10.052,0,0,0,2.59,2.347,25.493,25.493,0,0,0,8.879,3.309A12.06,12.06,0,0,0,95.858,82.7,8.142,8.142,0,0,0,97.734,73.157Zm-23.186-8A7.426,7.426,0,0,1,72.8,62.6a6,6,0,0,0-3.467-3.14,6.76,6.76,0,0,1,.905.214,5.1,5.1,0,0,1,2.949,2.651,11.919,11.919,0,0,0,1.47,2.388,11.733,11.733,0,0,0,1.678,1.462A3.657,3.657,0,0,1,74.548,65.157Z" transform="translate(-22.995 0)" fill-rule="evenodd"/>
    <path id="Caminho_1651" data-name="Caminho 1651" d="M51.735,99.06c-.043.014-.064.028-.073.022-2.911-1.682-6.194-2.291-9.364-3.208-4.083-1.18-8.194-2.263-12.292-3.39a5.859,5.859,0,0,1-.622-.2c-1.119-.451-1.327-.853-1.031-2,.084-.325.194-.643.282-.968,1.029-3.838,4.361-5.3,7.459-5.24a7.046,7.046,0,0,1,2.634.758,14.4,14.4,0,0,1,5.3,4.418c2.041,2.587,4.032,5.214,6.056,7.815C50.608,97.74,51.174,98.384,51.735,99.06Z" transform="translate(0 -16.635)" fill-rule="evenodd"/>
  </g>
</svg>
