<svg xmlns="http://www.w3.org/2000/svg" width="23.006" height="23.003" viewBox="0 0 23.006 23.003">
  <path id="ic_tab_home_on" d="M23,5.871a8.847,8.847,0,0,0-.23-2.1A4.713,4.713,0,0,0,20.683.855a4.814,4.814,0,0,0-1.8-.7,10.061,10.061,0,0,0-1.5-.144c-.038,0-.08-.01-.119-.012H5.741C5.6.011,5.45.018,5.3.026A6.685,6.685,0,0,0,3.2.411,4.788,4.788,0,0,0,.456,3.076a5.388,5.388,0,0,0-.348,1.35,10.169,10.169,0,0,0-.1,1.131c0,.031-.007.059-.01.089V17.362c.01.134.016.271.026.406a6.308,6.308,0,0,0,.476,2.275,4.774,4.774,0,0,0,3.1,2.686,6.3,6.3,0,0,0,1.239.219C5.377,23,5.909,23,6.442,23H17.015a11.982,11.982,0,0,0,1.5-.1,5.117,5.117,0,0,0,2.2-.776,4.837,4.837,0,0,0,1.8-2.116,5.311,5.311,0,0,0,.355-1.269,11.715,11.715,0,0,0,.131-1.955q0-5.464,0-10.921ZM16.846,9.7V15.17a2.582,2.582,0,0,1-.234,1.156,2.03,2.03,0,0,1-1.33,1.093,4.423,4.423,0,0,1-1.026.166,1.793,1.793,0,0,1-.867-3.41,4.089,4.089,0,0,1,.976-.311c.362-.079.727-.147,1.087-.23a.592.592,0,0,0,.489-.495.866.866,0,0,0,.019-.185q0-2.61,0-5.217a.7.7,0,0,0-.025-.177.276.276,0,0,0-.291-.224,3.468,3.468,0,0,0-.455.063q-1.093.216-2.185.437l-2.23.451-1.317.266c-.015,0-.031.01-.046.012a.432.432,0,0,0-.374.47c0,.04,0,.082,0,.125q0,3.741,0,7.481a2.939,2.939,0,0,1-.206,1.176A2.041,2.041,0,0,1,7.451,19a4.258,4.258,0,0,1-1.03.165,1.764,1.764,0,0,1-1.84-1.48,1.788,1.788,0,0,1,1.106-1.989,5.653,5.653,0,0,1,1.062-.3c.275-.058.551-.111.824-.17a.667.667,0,0,0,.575-.684V14.4q0-4.256,0-8.514a1.525,1.525,0,0,1,.04-.355.665.665,0,0,1,.523-.5c.244-.063.494-.107.742-.158.7-.144,1.405-.284,2.109-.426L13.74,4.01c.642-.128,1.284-.259,1.927-.386a5.819,5.819,0,0,1,.636-.1.473.473,0,0,1,.531.462,1.97,1.97,0,0,1,.012.214q0,2.746,0,5.494Z" transform="translate(-0.003 -0.001)" fill="#fff"/>
</svg>
