<svg xmlns="http://www.w3.org/2000/svg" width="30.007" height="20.004" viewBox="0 0 30.007 20.004">
  <path id="ic_tab_tickets_off" d="M6.668,9.5h16.67v10H6.668Zm20.838,5a2.5,2.5,0,0,0,2.5,2.5v5a2.5,2.5,0,0,1-2.5,2.5H2.5A2.5,2.5,0,0,1,0,22V17a2.5,2.5,0,0,0,2.5-2.5A2.5,2.5,0,0,0,0,12V7A2.5,2.5,0,0,1,2.5,4.5H27.506a2.5,2.5,0,0,1,2.5,2.5v5A2.5,2.5,0,0,0,27.506,14.5Zm-2.5-5.418a1.25,1.25,0,0,0-1.25-1.25H6.251A1.25,1.25,0,0,0,5,9.084V19.92a1.25,1.25,0,0,0,1.25,1.25h17.5a1.25,1.25,0,0,0,1.25-1.25Z" transform="translate(0 -4.5)" fill="#a4a0a0"/>
</svg>
