<svg xmlns="http://www.w3.org/2000/svg" width="61.606" height="41.989" viewBox="0 0 61.606 41.989">
  <g id="logo_navbar" transform="translate(-101.772 -110.986)">
    <path id="Caminho_1617" data-name="Caminho 1617" d="M227.457,128.084c2.533-7.084,17.252-6.571,20.072-17.1-7.256,7.6-13.931,5.581-20.072,10.973-6.141-5.391-12.816-3.372-20.072-10.973C210.2,121.513,224.924,121,227.457,128.084Z" transform="translate(-94.882 0)" fill="#fff"/>
    <path id="Caminho_1618" data-name="Caminho 1618" d="M339.359,315.92c2.987,2.287,6.662,2.4,6.662,3.687,0-1.285,3.675-1.4,6.662-3.687a26.989,26.989,0,0,1-13.325,0Z" transform="translate(-213.446 -184.111)" fill="#fff"/>
    <path id="Caminho_1619" data-name="Caminho 1619" d="M109.659,355.4v.191H122.6v-.182H122a1.675,1.675,0,0,1-.872-.172.934.934,0,0,1-.377-.865v-4.325l8.127,3.049.02,2.5h.824v-5.8a1.445,1.445,0,0,1,.055-.417,1.8,1.8,0,0,1,.465-.212,5.39,5.39,0,0,1,1.5-.156h1.663v5.367a.923.923,0,0,1-.39.865,1.762,1.762,0,0,1-.891.172h-.569v.182h9.23V355.4c-1.008-.037-1.513-.186-1.513-.44a7.492,7.492,0,0,1,1.513-2.1l1.171-1.466h2.179l1.14,1.466a7.168,7.168,0,0,1,1.445,2.115q0,.393-1.329.43v.191h11.98l1.118-1.906-.317-.037a3.5,3.5,0,0,1-1.86,1.321,9.825,9.825,0,0,1-2.264.177h-1.156c-.546,0-.849,0-.906-.005a1.463,1.463,0,0,1-.847-.207.843.843,0,0,1-.155-.591V349.93a1.3,1.3,0,0,1,.155-.794q.355-.387,2.033-.379v-.191h-5.917v.182h.589a1.757,1.757,0,0,1,.9.177.95.95,0,0,1,.39.886v4.532a1.256,1.256,0,0,1-.137.624,4.056,4.056,0,0,1-.7-.718l-4.547-5.842h-.337l-4.6,5.781a3.775,3.775,0,0,1-.936.92,3.114,3.114,0,0,1-1.214.294v.009h-.178a1.662,1.662,0,0,1-.867-.172.939.939,0,0,1-.372-.865v-5.367h1.84a4.451,4.451,0,0,1,1.431.177,1.4,1.4,0,0,1,.959,1.031h.367l-.145-1.648H127.012v.191h.587a1.735,1.735,0,0,1,.88.17.914.914,0,0,1,.38.861v1.871l-7.984-3.093H109.359v.191c.812,0,1.209.1,1.186.3q-.035.337-2.062,1.034a10.415,10.415,0,0,1-2.991.7l.015-.98a17.539,17.539,0,0,1,.178-3.114q.262-.369,1.735-.368v-.191h-5.57v.191q1.482,0,1.743.341a3.128,3.128,0,0,1,.072.845q.01.549,0,1.431a5.679,5.679,0,0,1-.013.865l-.015,6.835c0,.419-.081.684-.232.8a3.264,3.264,0,0,1-1.638.255v.191h5.57V357.7q-1.465,0-1.725-.347a1.3,1.3,0,0,1-.125-.7V350.92l4.524,3.565.414.239c.186.117.28.233.28.352Q110.709,355.4,109.659,355.4Zm33.4-5.383.77.988h-1.561Zm-23.158-.53v4.886a.923.923,0,0,1-.39.865,1.322,1.322,0,0,1-.551.155q-1.123-.043-1.347-.341a1.3,1.3,0,0,1-.125-.7V349.81a.95.95,0,0,1,.395-.886,1.02,1.02,0,0,1,.3-.115,3.458,3.458,0,0,1,.491.1A4.78,4.78,0,0,1,119.9,349.488Zm-11.776,1.6,1.224-.456a13.663,13.663,0,0,0,1.575-.746,16.286,16.286,0,0,1,1.567-.762,4.8,4.8,0,0,1,1.569-.359q1.223.032,1.453.343a1.309,1.309,0,0,1,.125.706v4.539a.826.826,0,0,1-.636.992,6.71,6.71,0,0,1-1.081-.194,4.861,4.861,0,0,1-1.75-.875Z" transform="translate(0 -211.258)" fill="#fff"/>
    <path id="Caminho_1620" data-name="Caminho 1620" d="M228.272,185.049c3.189,7.427,9.588,6.135,17.071,9.953C241.47,188.958,233.819,188.829,228.272,185.049Z" transform="translate(-113.647 -66.538)" fill="#fff"/>
    <path id="Caminho_1621" data-name="Caminho 1621" d="M298.595,250.086c-.9,1.39-11.609,2.984-13.56,4.786-1.951-1.8-12.659-3.4-13.56-4.786,2.782,4.97,7.791,6.47,13.56,6.473S295.812,255.056,298.595,250.086Z" transform="translate(-152.46 -124.966)" fill="#fff"/>
    <path id="Caminho_1622" data-name="Caminho 1622" d="M430.648,185.049c-5.547,3.78-13.2,3.909-17.071,9.953C421.06,191.185,427.459,192.476,430.648,185.049Z" transform="translate(-280.124 -66.538)" fill="#fff"/>
    <path id="Caminho_1623" data-name="Caminho 1623" d="M340.121,456.813a3.894,3.894,0,0,0-1.8-.882,4.4,4.4,0,0,0,1.449-.543q.908-.509.911-1.02t-2.327-.762a30.533,30.533,0,0,0-3.184-.156h-7.816v.191c.064,0,.163,0,.294-.005l.294,0a1.778,1.778,0,0,1,.9.175.954.954,0,0,1,.39.886v2.845a2.6,2.6,0,0,1-.372,1.586,2.957,2.957,0,0,1-1.715.859,8.918,8.918,0,0,1-1.96.212,5.1,5.1,0,0,1-2.309-.405,2.088,2.088,0,0,1-1.084-2.035v-3.063a.937.937,0,0,1,.419-.889,1.975,1.975,0,0,1,.934-.166h.275l.271,0v-.191h-5.647v.191c.061,0,.155,0,.28-.005l.284,0a1.871,1.871,0,0,1,.924.175.937.937,0,0,1,.409.886v2.746a4.609,4.609,0,0,0,.176,1.454,3.336,3.336,0,0,1-1.549.96,9.831,9.831,0,0,1-2.264.177h-1.156c-.546,0-.849,0-.906-.005a1.466,1.466,0,0,1-.847-.207.843.843,0,0,1-.155-.591v-4.414a1.3,1.3,0,0,1,.155-.794q.355-.387,2.032-.378v-.191h-5.917v.182h.589a1.759,1.759,0,0,1,.9.177.95.95,0,0,1,.39.886v4.076l-.135-.046a7.491,7.491,0,0,1-2.065,1.134,7.416,7.416,0,0,1-2.319.322,7.309,7.309,0,0,1-3.175-.658,2.515,2.515,0,0,1-1.71-2.44,4.315,4.315,0,0,1,.452-1.89,1.621,1.621,0,0,1,1.373-.911q.212-.01.429-.011,2.886,0,3.937,1.885h.3l-.3-2.389h-.337a.8.8,0,0,1-.811.486,2.889,2.889,0,0,1-.577-.113,10.372,10.372,0,0,0-2.207-.409,5.121,5.121,0,0,0-.587.035,7.338,7.338,0,0,0-1.653.368,3.413,3.413,0,0,0-1.34,1.006,5.367,5.367,0,0,0-.632.886,2.32,2.32,0,0,0-.245,1.047,2.769,2.769,0,0,0,1.33,2.269,8.4,8.4,0,0,0,5.029,1.294,7.656,7.656,0,0,0,5.242-1.662v.253a.948.948,0,0,1-.395.891,1.839,1.839,0,0,1-.921.172h-.564v.186h10.116l.7-1.2q1.052,1.364,4.736,1.365a11.529,11.529,0,0,0,2.491-.244,3.338,3.338,0,0,0,2.149-1.176,2.92,2.92,0,0,0,.39-1.637v-2.851a.929.929,0,0,1,.626-.994c.022-.008.049-.015.077-.022a.921.921,0,0,1,.207.091.941.941,0,0,1,.4.886v4.538a.941.941,0,0,1-.4.886,1.866,1.866,0,0,1-.919.172h-.564v.186h6.167a22.759,22.759,0,0,0,2.572-.11,4.823,4.823,0,0,0,2.4-.813,1.328,1.328,0,0,0,.617-1A2.379,2.379,0,0,0,340.121,456.813Zm-6.856-2.9A11.918,11.918,0,0,1,335,453.8c.068,0,.24,0,.52-.009s.513-.007.7-.007q2.452,0,2.452.543,0,.591-1.467,1.036a7.469,7.469,0,0,1-2.115.362c-.737,0-1.344-.025-1.824-.073v-1.74Zm4.307,5.963a8.6,8.6,0,0,1-2.1.233,17.635,17.635,0,0,1-2.207-.14v-3.841q.479-.045,1.708-.046a4.807,4.807,0,0,1,1.477.332,6.55,6.55,0,0,1,1.751.9,1.762,1.762,0,0,1,.845,1.328Q339.048,459.5,337.572,459.874Z" transform="translate(-177.904 -307.667)" fill="#fff"/>
  </g>
</svg>
