<svg xmlns="http://www.w3.org/2000/svg" width="189.459" height="158.011" viewBox="0 0 189.459 158.011">
  <g id="logo_splash" transform="translate(-101.772 -110.986)">
    <path id="Caminho_1617" data-name="Caminho 1617" d="M269.113,163.568c7.79-21.784,53.057-20.208,61.728-52.582-22.314,23.376-42.842,17.165-61.728,33.745-18.886-16.58-39.414-10.369-61.728-33.745C216.056,143.36,261.323,141.784,269.113,163.568Z" transform="translate(-72.611)" fill="#fff"/>
    <path id="Caminho_1618" data-name="Caminho 1618" d="M339.359,315.92c9.186,7.033,20.489,7.388,20.489,11.34,0-3.952,11.3-4.307,20.489-11.34-6.892,1.8-13.3,3.382-20.489,2.569C352.656,319.3,346.251,317.725,339.359,315.92Z" transform="translate(-163.346 -140.896)" fill="#fff"/>
    <path id="Caminho_1619" data-name="Caminho 1619" d="M126.026,374.628v.587h39.8v-.56h-1.851a5.152,5.152,0,0,1-2.68-.527,2.873,2.873,0,0,1-1.158-2.659v-13.3l24.992,9.376.061,7.673h2.534V357.378a4.443,4.443,0,0,1,.168-1.282,5.533,5.533,0,0,1,1.43-.653,16.578,16.578,0,0,1,4.622-.479h5.113v16.505a2.84,2.84,0,0,1-1.2,2.659,5.418,5.418,0,0,1-2.741.527h-1.75v.56h28.386v-.587c-3.1-.114-4.653-.571-4.653-1.354q0-1,4.653-6.471l3.6-4.508h6.7l3.5,4.508q4.445,5.433,4.445,6.5,0,1.207-4.086,1.321v.587h36.841l3.439-5.862-.976-.114a10.771,10.771,0,0,1-5.72,4.063,30.214,30.214,0,0,1-6.964.544h-3.555c-1.679,0-2.61-.006-2.786-.017a4.5,4.5,0,0,1-2.6-.636,2.594,2.594,0,0,1-.475-1.816V357.8a4,4,0,0,1,.475-2.441q1.093-1.191,6.251-1.164v-.587h-18.2v.56h1.81a5.4,5.4,0,0,1,2.771.544,2.922,2.922,0,0,1,1.2,2.725v13.938a3.863,3.863,0,0,1-.422,1.92,12.475,12.475,0,0,1-2.142-2.208l-13.983-17.968h-1.037L215.709,370.9a11.609,11.609,0,0,1-2.878,2.828,9.579,9.579,0,0,1-3.732.9v.027h-.546a5.111,5.111,0,0,1-2.665-.527,2.889,2.889,0,0,1-1.143-2.659V354.964H210.4a13.687,13.687,0,0,1,4.4.544,4.318,4.318,0,0,1,2.949,3.17h1.127l-.445-5.068H179.395v.587H181.2a5.336,5.336,0,0,1,2.705.522,2.811,2.811,0,0,1,1.168,2.649v5.753l-24.553-9.512H125.106v.587c2.5,0,3.717.31,3.646.924q-.106,1.036-6.341,3.181t-9.2,2.143l.046-3.013q.174-9.08.546-9.577.8-1.134,5.335-1.131v-.587H102.01v.587q4.559,0,5.361,1.05a9.621,9.621,0,0,1,.222,2.6q.03,1.688.015,4.4a17.443,17.443,0,0,1-.041,2.66l-.045,21.019c-.01,1.289-.248,2.1-.713,2.453q-1.062.783-5.037.783v.587H118.9v-.587q-4.506,0-5.3-1.066a4,4,0,0,1-.384-2.164V360.847l13.912,10.963,1.275.734c.572.359.86.718.86,1.082Q129.258,374.631,126.026,374.628Zm102.72-16.554,2.367,3.04h-4.8Zm-71.219-1.631v15.026a2.84,2.84,0,0,1-1.2,2.659,4.067,4.067,0,0,1-1.693.477q-3.454-.133-4.143-1.048a3.992,3.992,0,0,1-.384-2.165v-13.96a2.92,2.92,0,0,1,1.214-2.725,3.141,3.141,0,0,1,.917-.354,10.636,10.636,0,0,1,1.511.3A14.7,14.7,0,0,1,157.527,356.443Zm-36.214,4.911,3.763-1.4a42.023,42.023,0,0,0,4.845-2.3,50.107,50.107,0,0,1,4.819-2.344,14.767,14.767,0,0,1,4.826-1.1q3.761.1,4.469,1.054a4.025,4.025,0,0,1,.384,2.17v13.96a2.542,2.542,0,0,1-1.956,3.05,20.654,20.654,0,0,1-3.323-.6,14.946,14.946,0,0,1-5.381-2.692Z" transform="translate(0 -161.671)" fill="#fff"/>
    <path id="Caminho_1620" data-name="Caminho 1620" d="M228.272,185.049c9.808,22.84,29.487,18.869,52.5,30.61C268.861,197.069,245.33,196.675,228.272,185.049Z" transform="translate(-86.971 -50.92)" fill="#fff"/>
    <path id="Caminho_1621" data-name="Caminho 1621" d="M354.878,250.086c-2.77,4.275-35.7,9.176-41.7,14.718-6-5.542-38.931-10.443-41.7-14.718,8.557,15.283,23.961,19.9,41.7,19.908C330.916,269.984,346.321,265.369,354.878,250.086Z" transform="translate(-116.674 -95.634)" fill="#fff"/>
    <path id="Caminho_1622" data-name="Caminho 1622" d="M466.076,185.049c-17.058,11.626-40.589,12.02-52.5,30.61C436.589,203.918,456.268,207.889,466.076,185.049Z" transform="translate(-214.373 -50.92)" fill="#fff"/>
    <path id="Caminho_1623" data-name="Caminho 1623" d="M423.808,463.794a11.973,11.973,0,0,0-5.523-2.714,13.537,13.537,0,0,0,4.456-1.67q2.791-1.566,2.8-3.138.03-1.615-7.155-2.344a93.885,93.885,0,0,0-9.791-.479H384.56v.587c.2,0,.5-.006.9-.017s.7-.011.905-.011a5.47,5.47,0,0,1,2.771.539,2.933,2.933,0,0,1,1.2,2.724v8.75q0,3.426-1.143,4.878-1.373,1.762-5.275,2.643a27.421,27.421,0,0,1-6.028.653q-4.741,0-7.1-1.246-3.33-1.729-3.333-6.259v-9.419a2.883,2.883,0,0,1,1.29-2.735,6.075,6.075,0,0,1,2.872-.512h.845c.379.006.652.011.835.011v-.587H355.936v.587c.187,0,.475-.006.86-.017s.677-.011.875-.011a5.753,5.753,0,0,1,2.843.539,2.881,2.881,0,0,1,1.259,2.724v8.446a14.177,14.177,0,0,0,.54,4.472,10.259,10.259,0,0,1-4.763,2.951,30.231,30.231,0,0,1-6.964.543H347.03c-1.679,0-2.61-.005-2.786-.016a4.507,4.507,0,0,1-2.6-.636,2.593,2.593,0,0,1-.475-1.816V457.643a4,4,0,0,1,.475-2.442q1.092-1.191,6.251-1.164v-.587h-18.2v.56h1.81a5.409,5.409,0,0,1,2.771.544,2.921,2.921,0,0,1,1.2,2.724v12.536l-.415-.143a23.033,23.033,0,0,1-6.352,3.486,22.8,22.8,0,0,1-7.131.99,22.478,22.478,0,0,1-9.765-2.023q-5.484-2.61-5.259-7.5a13.271,13.271,0,0,1,1.391-5.813,4.984,4.984,0,0,1,4.223-2.8q.652-.032,1.32-.033,8.876,0,12.107,5.8h.915l-.915-7.347h-1.036a2.446,2.446,0,0,1-2.493,1.5,8.884,8.884,0,0,1-1.775-.348,31.9,31.9,0,0,0-6.786-1.256,15.755,15.755,0,0,0-1.805.109,22.562,22.562,0,0,0-5.082,1.132,10.5,10.5,0,0,0-4.121,3.094,16.516,16.516,0,0,0-1.942,2.724,7.137,7.137,0,0,0-.753,3.22q-.03,3.965,4.091,6.977,5.431,3.98,15.465,3.981,10.336,0,16.122-5.112v.778a2.915,2.915,0,0,1-1.214,2.741,5.656,5.656,0,0,1-2.832.527h-1.735v.571h31.111l2.163-3.687q3.235,4.2,14.566,4.2a35.458,35.458,0,0,0,7.661-.751q4.931-1.1,6.61-3.616a8.978,8.978,0,0,0,1.2-5.036V457.4a2.856,2.856,0,0,1,1.926-3.056c.069-.023.15-.046.237-.066a2.84,2.84,0,0,1,.637.278,2.894,2.894,0,0,1,1.229,2.724v13.954a2.9,2.9,0,0,1-1.244,2.725,5.739,5.739,0,0,1-2.827.527h-1.735v.571h18.964a70,70,0,0,0,7.91-.337q5.006-.62,7.378-2.5a4.083,4.083,0,0,0,1.9-3.073C427.378,467.4,426.189,465.615,423.808,463.794Zm-21.083-8.924a36.651,36.651,0,0,1,5.335-.348c.207,0,.738-.011,1.6-.027s1.578-.022,2.15-.022q7.54,0,7.54,1.67,0,1.819-4.511,3.187a22.975,22.975,0,0,1-6.5,1.114c-2.266,0-4.132-.076-5.608-.223V454.87Zm13.244,18.338a26.454,26.454,0,0,1-6.458.718,54.259,54.259,0,0,1-6.787-.43V461.684q1.472-.139,5.254-.141a14.783,14.783,0,0,1,4.541,1.022,20.141,20.141,0,0,1,5.386,2.768q2.6,2,2.6,4.084Q420.505,472.06,415.969,473.207Z" transform="translate(-136.146 -235.451)" fill="#fff"/>
    <path id="Caminho_1624" data-name="Caminho 1624" d="M309.954,591.688h5.561v-1.559H311.57v-3.462h3.944v-1.529H311.57v-2.683h3.944v-1.484h-5.561Z" transform="translate(-143.129 -323.124)" fill="#fff"/>
    <path id="Caminho_1625" data-name="Caminho 1625" d="M457.872,583.918a3.58,3.58,0,0,0-.265-1.394,2.5,2.5,0,0,0-.737-1,2.431,2.431,0,0,0-.9-.422,7.322,7.322,0,0,0-1.606-.128h-2.448v10.717h1.519v-4.811h.929a7.519,7.519,0,0,0,1.606-.125,2.375,2.375,0,0,0,.9-.417,2.411,2.411,0,0,0,.737-1.009A3.662,3.662,0,0,0,457.872,583.918Zm-2.121,1.219a3.462,3.462,0,0,1-1.8.315h-.416v-2.983h.416a3.184,3.184,0,0,1,1.766.35,1.4,1.4,0,0,1,.481,1.207A1.262,1.262,0,0,1,455.751,585.137Z" transform="translate(-240.734 -323.123)" fill="#fff"/>
    <path id="Caminho_1626" data-name="Caminho 1626" d="M527.059,586.285c-.025.068-.067.165-.121.292a12.153,12.153,0,0,0-.451,1.169q-.2-.547-.336-.922c-.093-.247-.163-.427-.207-.532L523,579.53,520.648,590.7h1.491l1.069-5.276q.088-.4.132-.772a6.952,6.952,0,0,0,.051-.707q.088.33.207.667c.079.225.174.455.283.695l2.606,5.828,2.607-5.711a6.309,6.309,0,0,0,.283-.747,5.832,5.832,0,0,0,.174-.732c.026.2.058.464.1.777.04.374.07.6.088.687l1.1,5.291h1.447l.039-.09-2.389-11.076Z" transform="translate(-287.986 -322.133)" fill="#fff"/>
    <path id="Caminho_1627" data-name="Caminho 1627" d="M468.893,590.763h1.7l1.157-2.758H475.7l1.129,2.758h1.71l-4.82-11.136Zm5.029-7.192c.063.2.125.382.183.537l1.022,2.443h-2.779l1.022-2.443c.063-.17.125-.357.186-.56s.121-.419.174-.654C473.794,583.144,473.859,583.369,473.922,583.572Z" transform="translate(-252.403 -322.2)" fill="#fff"/>
    <path id="Caminho_1628" data-name="Caminho 1628" d="M558.008,590.674l.02.09h1.642l1.157-2.758h3.949l1.129,2.758h1.71l-4.82-11.136Zm4.991-7.1c.062.2.125.382.183.537l1.022,2.443h-2.779l1.022-2.443c.063-.17.125-.357.186-.56s.121-.419.174-.654C562.87,583.144,562.936,583.369,563,583.572Z" transform="translate(-313.671 -322.2)" fill="#fff"/>
    <path id="Caminho_1629" data-name="Caminho 1629" d="M652.206,585.674h-3.942v1.469h2.395v.152a2.384,2.384,0,0,1-.8,1.9,3.211,3.211,0,0,1-2.183.695,3.417,3.417,0,0,1-2.658-1.132A4.21,4.21,0,0,1,644,585.808a4.123,4.123,0,0,1,1.024-2.9,3.423,3.423,0,0,1,2.644-1.117,3.184,3.184,0,0,1,1.415.307,3.319,3.319,0,0,1,1.138.937l1.18-.959a4.771,4.771,0,0,0-1.656-1.411,4.673,4.673,0,0,0-2.1-.462,5.485,5.485,0,0,0-2.1.4,4.907,4.907,0,0,0-1.708,1.172,5.244,5.244,0,0,0-1.141,1.806,6.362,6.362,0,0,0-.383,2.241,6.5,6.5,0,0,0,.379,2.238,5.349,5.349,0,0,0,1.085,1.824,4.607,4.607,0,0,0,1.679,1.171,5.807,5.807,0,0,0,2.184.387,4.49,4.49,0,0,0,3.394-1.252,4.854,4.854,0,0,0,1.2-3.51c0-.122-.007-.355-.021-.7C652.208,585.849,652.206,585.746,652.206,585.674Z" transform="translate(-371.631 -322.596)" fill="#fff"/>
    <path id="Caminho_1630" data-name="Caminho 1630" d="M608.542,586.285c-.025.068-.067.165-.121.292a12.153,12.153,0,0,0-.451,1.169q-.2-.547-.336-.922c-.093-.247-.163-.427-.207-.532l-2.941-6.762L602.131,590.7h1.491l1.069-5.276q.087-.4.132-.772a6.9,6.9,0,0,0,.051-.707q.088.33.207.667c.079.225.174.455.283.695l2.606,5.828,2.607-5.711a6.287,6.287,0,0,0,.283-.747,5.822,5.822,0,0,0,.174-.732c.026.2.058.464.1.777.04.374.07.6.088.687l1.1,5.291h1.505l-2.409-11.166Z" transform="translate(-344.007 -322.133)" fill="#fff"/>
    <path id="Caminho_1631" data-name="Caminho 1631" d="M504.371,580.971h-1.616v10.717H508v-1.559h-3.624Z" transform="translate(-275.684 -323.124)" fill="#fff"/>
    <path id="Caminho_1632" data-name="Caminho 1632" d="M225.415,590.763h1.7l1.157-2.758h3.949l1.129,2.758h1.71l-4.82-11.136Zm5.029-7.192c.063.2.125.382.183.537l1.022,2.443h-2.779l1.022-2.443c.063-.17.125-.357.186-.56s.121-.419.174-.654C230.316,583.144,230.382,583.369,230.444,583.572Z" transform="translate(-85.007 -322.2)" fill="#fff"/>
    <path id="Caminho_1633" data-name="Caminho 1633" d="M264.4,585.936a3.168,3.168,0,0,0,.578-2.016,3.523,3.523,0,0,0-.251-1.347,2.557,2.557,0,0,0-.715-1,2.328,2.328,0,0,0-.934-.46,6.629,6.629,0,0,0-1.542-.14h-2.258v10.716H260.8v-4.8h.181l3.317,4.8h1.77l.024-.045-3.4-4.832A2.483,2.483,0,0,0,264.4,585.936Zm-3.505-.395v-3.073h.295a2.805,2.805,0,0,1,1.677.362,1.514,1.514,0,0,1,.453,1.246,1.356,1.356,0,0,1-.423,1.142,3.068,3.068,0,0,1-1.707.322h-.3Z" transform="translate(-108.288 -323.123)" fill="#fff"/>
    <path id="Caminho_1634" data-name="Caminho 1634" d="M404.6,590.763h1.7l1.157-2.758H411.4l1.129,2.758h1.71l-4.82-11.136Zm5.029-7.192c.063.2.125.382.183.537l1.022,2.443h-2.779l1.022-2.443c.063-.17.125-.357.186-.56s.121-.419.174-.654C409.5,583.144,409.562,583.369,409.625,583.572Z" transform="translate(-208.197 -322.2)" fill="#fff"/>
    <path id="Caminho_1635" data-name="Caminho 1635" d="M288.616,580.971H281.9v1.484h4.223l-5.049,9.188.032.045h7.568v-1.559h-5.087Z" transform="translate(-123.275 -323.124)" fill="#fff"/>
    <path id="Caminho_1636" data-name="Caminho 1636" d="M329.364,590.763h1.7l1.157-2.758h3.949l1.129,2.758h1.71l-4.82-11.136Zm5.029-7.192c.063.2.125.382.183.537l1.022,2.443H332.82l1.022-2.443c.063-.17.125-.357.186-.56s.121-.419.174-.654C334.265,583.144,334.331,583.369,334.393,583.572Z" transform="translate(-156.474 -322.2)" fill="#fff"/>
    <path id="Caminho_1637" data-name="Caminho 1637" d="M238.608,573.227l1.991-1.993h-1.533l-1.3,1.993Z" transform="translate(-93.501 -316.43)" fill="#fff"/>
    <path id="Caminho_1638" data-name="Caminho 1638" d="M205.281,580.971l-2.225,5.71q-.185.453-.321.884c-.091.29-.165.567-.223.834-.051-.253-.118-.52-.2-.8s-.195-.587-.327-.917l-2.232-5.71h-1.685l4.449,11.136,4.443-11.136Z" transform="translate(-66.202 -323.124)" fill="#fff"/>
    <path id="Caminho_1639" data-name="Caminho 1639" d="M383.394,581.973a3.986,3.986,0,0,0-1.522-.772,13.445,13.445,0,0,0-3-.229H376.69v10.717h2.618a10.7,10.7,0,0,0,2.6-.23,4,4,0,0,0,1.489-.772,4.542,4.542,0,0,0,1.31-1.821,6.689,6.689,0,0,0,.446-2.528,6.783,6.783,0,0,0-.446-2.541A4.465,4.465,0,0,0,383.394,581.973Zm-.214,6.145a3.229,3.229,0,0,1-.847,1.294,2.411,2.411,0,0,1-.978.542,6.571,6.571,0,0,1-1.684.16h-1.364V582.53h1.171a7.626,7.626,0,0,1,1.844.16,2.465,2.465,0,0,1,1.011.542,3.226,3.226,0,0,1,.847,1.294,5.829,5.829,0,0,1,0,3.592Z" transform="translate(-189.012 -323.124)" fill="#fff"/>
  </g>
</svg>
