<?xml version="1.0" encoding="utf-8"?>
<!-- Generator: Adobe Illustrator 16.0.0, SVG Export Plug-In . SVG Version: 6.00 Build 0)  -->
<!DOCTYPE svg PUBLIC "-//W3C//DTD SVG 1.1//EN" "http://www.w3.org/Graphics/SVG/1.1/DTD/svg11.dtd">
<svg version="1.1" id="Layer_1" xmlns="http://www.w3.org/2000/svg" xmlns:xlink="http://www.w3.org/1999/xlink" x="0px" y="0px"
	 width="96px" height="96px" viewBox="0 0 96 96" enable-background="new 0 0 96 96" xml:space="preserve">
<path fill="#FBBB00" d="M21.275,58.014l-3.341,12.475L5.72,70.747C2.07,63.977,0,56.231,0,48c0-7.959,1.936-15.466,5.367-22.075
	H5.37l10.874,1.994l4.763,10.808c-0.997,2.906-1.541,6.026-1.541,9.273C19.466,51.523,20.104,54.899,21.275,58.014z"/>
<path fill="#518EF8" d="M95.161,39.033C95.713,41.937,96,44.936,96,48c0,3.437-0.361,6.789-1.05,10.021
	c-2.337,11.004-8.442,20.611-16.899,27.41l-0.003-0.002L64.352,84.73l-1.938-12.1c5.611-3.292,9.998-8.443,12.309-14.609H49.055
	V39.033h26.042H95.161L95.161,39.033z"/>
<path fill="#28B446" d="M78.047,85.43l0.004,0.002C69.824,92.044,59.375,96,48,96C29.72,96,13.828,85.783,5.72,70.747l15.555-12.733
	c4.054,10.818,14.49,18.52,26.725,18.52c5.259,0,10.186-1.421,14.413-3.902L78.047,85.43z"/>
<path fill="#F14336" d="M78.639,11.05L63.088,23.781c-4.375-2.735-9.547-4.315-15.088-4.315c-12.512,0-23.143,8.054-26.994,19.261
	L5.37,25.925H5.367C13.355,10.523,29.449,0,48,0C59.646,0,70.325,4.148,78.639,11.05z"/>
</svg>
