<?xml version="1.0" encoding="utf-8"?>
<!-- Generator: Adobe Illustrator 16.0.0, SVG Export Plug-In . SVG Version: 6.00 Build 0)  -->
<!DOCTYPE svg PUBLIC "-//W3C//DTD SVG 1.1//EN" "http://www.w3.org/Graphics/SVG/1.1/DTD/svg11.dtd">
<svg version="1.1" id="Layer_1" xmlns="http://www.w3.org/2000/svg" xmlns:xlink="http://www.w3.org/1999/xlink" x="0px" y="0px"
	 width="195px" height="195px" viewBox="0 0 195 195" enable-background="new 0 0 195 195" xml:space="preserve">
<g>
	<path fill="#8BC34A" d="M190.046,98.066c0,25.051-9.93,47.785-26.071,64.468c-16.865,17.437-40.502,28.278-66.676,28.278
		c-26.173,0-49.814-10.842-66.679-28.281c-16.138-16.684-26.068-39.42-26.068-64.465c0-25.045,9.93-47.781,26.068-64.464
		C47.484,16.162,71.125,5.32,97.299,5.32c13.207,0,25.77,2.759,37.137,7.734l0.004,0.003
		C167.173,27.379,190.046,60.052,190.046,98.066z"/>
	<path fill="#3399CC" d="M163.977,42.593v119.941c-16.865,17.437-40.502,28.278-66.676,28.278s-49.814-10.842-66.679-28.281V5.32
		h96.085l7.73,7.734L163.977,42.593z"/>
	<rect x="47.708" y="37.13" fill="#FFFFFF" width="99.183" height="99.183"/>
	<polygon fill="#006699" points="163.975,42.591 126.704,42.591 126.704,5.32 	"/>
	<g>
		<path fill="#FFFFFF" d="M70.503,166.846l-0.872-2.291h-7.419l-0.872,2.342c-0.34,0.912-0.631,1.528-0.872,1.849
			c-0.241,0.319-0.635,0.479-1.183,0.479c-0.465,0-0.875-0.172-1.232-0.512c-0.357-0.34-0.535-0.727-0.535-1.156
			c0-0.25,0.042-0.508,0.125-0.772s0.22-0.636,0.411-1.107l4.668-11.852c0.132-0.341,0.292-0.748,0.479-1.226
			c0.187-0.479,0.386-0.873,0.598-1.189c0.211-0.314,0.49-0.57,0.834-0.766c0.344-0.194,0.77-0.293,1.276-0.293
			c0.515,0,0.944,0.099,1.289,0.293c0.344,0.194,0.623,0.445,0.834,0.754c0.212,0.307,0.39,0.637,0.535,0.988
			c0.146,0.354,0.33,0.824,0.554,1.413l4.768,11.776c0.374,0.896,0.56,1.548,0.56,1.953c0,0.424-0.176,0.813-0.529,1.164
			c-0.353,0.354-0.778,0.529-1.276,0.529c-0.291,0-0.54-0.053-0.747-0.156c-0.207-0.103-0.382-0.243-0.523-0.422
			c-0.141-0.18-0.292-0.453-0.454-0.821C70.758,167.454,70.62,167.128,70.503,166.846z M63.184,161.779h5.453l-2.751-7.531
			L63.184,161.779z"/>
		<path fill="#FFFFFF" d="M92.077,163.148c0,0.58-0.144,1.209-0.43,1.886s-0.737,1.341-1.351,1.991
			c-0.614,0.651-1.398,1.182-2.353,1.588c-0.954,0.406-2.066,0.609-3.336,0.609c-0.963,0-1.838-0.092-2.626-0.273
			c-0.789-0.184-1.504-0.467-2.147-0.854c-0.643-0.386-1.234-0.895-1.774-1.523c-0.481-0.573-0.892-1.215-1.232-1.924
			c-0.34-0.709-0.596-1.467-0.766-2.271c-0.17-0.804-0.255-1.66-0.255-2.564c0-1.469,0.214-2.783,0.641-3.945
			c0.428-1.162,1.04-2.155,1.836-2.98c0.796-0.826,1.73-1.455,2.801-1.887c1.071-0.432,2.211-0.646,3.423-0.646
			c1.477,0,2.792,0.295,3.946,0.883c1.153,0.591,2.037,1.318,2.651,2.186c0.614,0.868,0.921,1.688,0.921,2.459
			c0,0.424-0.149,0.797-0.448,1.12c-0.299,0.323-0.66,0.485-1.083,0.485c-0.473,0-0.828-0.112-1.064-0.336
			c-0.236-0.226-0.5-0.61-0.791-1.158c-0.481-0.904-1.048-1.58-1.699-2.028s-1.455-0.673-2.409-0.673
			c-1.519,0-2.729,0.577-3.629,1.73c-0.9,1.152-1.351,2.793-1.351,4.916c0,1.42,0.199,2.601,0.598,3.543
			c0.398,0.94,0.962,1.646,1.693,2.109c0.731,0.465,1.585,0.696,2.564,0.696c1.062,0,1.96-0.263,2.695-0.79
			c0.734-0.527,1.288-1.301,1.662-2.321c0.158-0.481,0.353-0.874,0.585-1.177s0.606-0.454,1.121-0.454
			c0.439,0,0.817,0.153,1.133,0.46C91.918,162.311,92.077,162.691,92.077,163.148z"/>
		<path fill="#FFFFFF" d="M99.122,152.592v5.229h7.979v-5.229c0-0.746,0.168-1.307,0.504-1.68c0.336-0.374,0.777-0.561,1.326-0.561
			c0.555,0,1.006,0.185,1.351,0.553c0.344,0.369,0.517,0.933,0.517,1.688v14.379c0,0.756-0.175,1.319-0.523,1.692
			c-0.348,0.373-0.795,0.562-1.344,0.562c-0.557,0-1-0.189-1.332-0.566c-0.332-0.379-0.498-0.94-0.498-1.688v-6.138h-7.979v6.138
			c0,0.756-0.176,1.319-0.521,1.692c-0.351,0.373-0.797,0.562-1.346,0.562c-0.556,0-1-0.189-1.332-0.566
			c-0.332-0.379-0.498-0.94-0.498-1.688v-14.379c0-0.746,0.164-1.307,0.492-1.68c0.328-0.374,0.774-0.561,1.338-0.561
			c0.556,0,1.006,0.185,1.352,0.553C98.949,151.273,99.122,151.837,99.122,152.592z"/>
		<path fill="#FFFFFF" d="M126.795,153.514h-8.328v4.481h7.67c0.563,0,0.984,0.126,1.264,0.38c0.276,0.253,0.416,0.587,0.416,1.002
			s-0.137,0.753-0.41,1.016c-0.274,0.26-0.697,0.392-1.27,0.392h-7.67v5.19h8.615c0.58,0,1.02,0.135,1.313,0.404
			c0.295,0.27,0.442,0.629,0.442,1.077c0,0.433-0.147,0.782-0.442,1.052c-0.293,0.27-0.731,0.404-1.313,0.404h-10.046
			c-0.806,0-1.386-0.18-1.737-0.535s-0.527-0.934-0.527-1.73V152.93c0-0.531,0.078-0.966,0.235-1.302
			c0.157-0.337,0.404-0.581,0.74-0.735c0.336-0.152,0.767-0.229,1.289-0.229h9.759c0.59,0,1.027,0.13,1.313,0.393
			c0.287,0.262,0.431,0.604,0.431,1.026c0,0.433-0.144,0.778-0.431,1.039C127.822,153.383,127.385,153.514,126.795,153.514z"/>
		<path fill="#FFFFFF" d="M131.924,166.971v-14.379c0-0.746,0.17-1.307,0.51-1.68c0.342-0.374,0.78-0.561,1.319-0.561
			c0.558,0,1.007,0.185,1.351,0.553c0.346,0.369,0.518,0.933,0.518,1.688v14.379c0,0.756-0.172,1.319-0.518,1.692
			c-0.344,0.373-0.793,0.562-1.351,0.562c-0.53,0-0.969-0.189-1.313-0.566C132.096,168.279,131.924,167.717,131.924,166.971z"/>
	</g>
	<path fill="#8BC34A" d="M90.813,100.369c9.292-12.307,18.058-23.916,26.826-35.527c0.977-1.291,1.957-2.58,2.916-3.885
		c2.74-3.721,6.258-5.086,10.105-2.144c3.613,2.763,3.105,6.417,0.564,9.811C120.127,83.435,109.033,98.247,97.858,113
		c-2.856,3.771-6.492,4.229-10.293,1.406c-7.616-5.652-15.185-11.368-22.715-17.137c-3.406-2.609-5.021-6.584-1.63-9.392
		c2.071-1.714,7.153-2.032,9.562-0.66C78.938,90.722,84.356,95.527,90.813,100.369z"/>
</g>
<rect x="47.708" y="141" fill="#3399CC" width="97.632" height="30.41"/>
</svg>
