<?xml version="1.0" encoding="utf-8"?>
<!-- Generator: Adobe Illustrator 16.0.0, SVG Export Plug-In . SVG Version: 6.00 Build 0)  -->
<!DOCTYPE svg PUBLIC "-//W3C//DTD SVG 1.1//EN" "http://www.w3.org/Graphics/SVG/1.1/DTD/svg11.dtd">
<svg version="1.1" id="Layer_1" xmlns="http://www.w3.org/2000/svg" xmlns:xlink="http://www.w3.org/1999/xlink" x="0px" y="0px"
	 width="195px" height="195px" viewBox="0 0 195 195" enable-background="new 0 0 195 195" xml:space="preserve">
<g>
	<path fill="#60C5E8" d="M190.072,97.799c0,25.049-9.93,47.785-26.071,64.469c-16.864,17.437-40.502,28.277-66.676,28.277
		c-26.174,0-49.814-10.842-66.679-28.281C14.509,145.58,4.579,122.846,4.579,97.799c0-25.046,9.93-47.782,26.067-64.465
		C47.511,15.895,71.151,5.053,97.325,5.053c13.207,0,25.769,2.76,37.137,7.734l0.004,0.003
		C167.199,27.111,190.072,59.785,190.072,97.799z"/>
	<g>
		<path fill="#EA5A52" d="M164.002,42.326v119.941c-16.863,17.438-40.502,28.278-66.675,28.278c-26.174,0-49.814-10.842-66.68-28.28
			V5.053h96.085l7.73,7.734L164.002,42.326z"/>
		<rect x="47.734" y="36.863" fill="#FFFFFF" width="99.182" height="99.183"/>
		<polygon fill="#D33531" points="164.001,42.323 126.73,42.323 126.73,5.053 		"/>
	</g>
	<g>
		<path fill="#FFFFFF" d="M66.801,161.536h-3.386v5.166c0,0.739-0.174,1.3-0.523,1.681c-0.349,0.383-0.789,0.573-1.319,0.573
			c-0.556,0-1.004-0.188-1.345-0.565c-0.34-0.379-0.51-0.933-0.51-1.662v-14.066c0-0.813,0.187-1.395,0.56-1.743
			c0.374-0.349,0.967-0.522,1.78-0.522h4.743c1.402,0,2.481,0.107,3.237,0.324c0.747,0.207,1.392,0.551,1.936,1.032
			s0.957,1.07,1.239,1.769c0.282,0.697,0.423,1.48,0.423,2.353c0,1.858-0.573,3.269-1.718,4.228
			C70.772,161.059,69.066,161.536,66.801,161.536z M65.905,153.171h-2.49v5.577h2.49c0.871,0,1.6-0.091,2.185-0.273
			c0.585-0.182,1.031-0.48,1.338-0.896c0.307-0.415,0.46-0.959,0.46-1.631c0-0.806-0.236-1.462-0.709-1.968
			C68.647,153.441,67.556,153.171,65.905,153.171z"/>
		<path fill="#FFFFFF" d="M88.748,153.246H80.42v4.48h7.668c0.564,0,0.985,0.127,1.264,0.381c0.278,0.252,0.417,0.586,0.417,1.002
			c0,0.414-0.137,0.752-0.411,1.015c-0.274,0.261-0.697,0.392-1.27,0.392H80.42v5.191h8.614c0.581,0,1.019,0.135,1.313,0.404
			s0.442,0.629,0.442,1.076c0,0.433-0.147,0.783-0.442,1.053c-0.295,0.27-0.733,0.404-1.313,0.404H78.988
			c-0.805,0-1.384-0.18-1.736-0.535c-0.353-0.356-0.529-0.935-0.529-1.73v-13.718c0-0.531,0.079-0.966,0.236-1.302
			c0.158-0.336,0.405-0.58,0.741-0.734c0.336-0.152,0.766-0.229,1.289-0.229h9.76c0.589,0,1.027,0.129,1.313,0.392
			c0.287,0.262,0.43,0.604,0.43,1.026c0,0.433-0.143,0.778-0.43,1.039C89.774,153.115,89.336,153.246,88.748,153.246z"/>
		<path fill="#FFFFFF" d="M98.693,160.84h-1.294v5.862c0,0.772-0.17,1.341-0.51,1.706c-0.34,0.365-0.784,0.548-1.332,0.548
			c-0.589,0-1.046-0.19-1.37-0.573c-0.323-0.381-0.485-0.941-0.485-1.681v-14.041c0-0.798,0.178-1.374,0.535-1.729
			c0.357-0.357,0.934-0.535,1.73-0.535h6.014c0.83,0,1.539,0.035,2.129,0.104c0.589,0.069,1.119,0.214,1.593,0.431
			c0.573,0.239,1.079,0.584,1.519,1.032c0.44,0.448,0.774,0.97,1.004,1.563c0.228,0.593,0.342,1.222,0.342,1.886
			c0,1.36-0.385,2.448-1.151,3.262c-0.769,0.813-1.933,1.39-3.492,1.729c0.656,0.349,1.282,0.863,1.88,1.544s1.131,1.403,1.6,2.172
			c0.47,0.769,0.834,1.461,1.097,2.079c0.263,0.617,0.394,1.044,0.394,1.275c0,0.24-0.078,0.479-0.23,0.717
			c-0.154,0.235-0.363,0.422-0.629,0.56s-0.572,0.206-0.922,0.206c-0.414,0-0.764-0.098-1.045-0.293
			c-0.282-0.193-0.525-0.441-0.729-0.74s-0.479-0.738-0.827-1.32l-1.48-2.463c-0.531-0.906-1.008-1.595-1.426-2.068
			c-0.42-0.473-0.846-0.795-1.275-0.971C99.895,160.927,99.35,160.84,98.693,160.84z M100.811,153.171H97.4v5.017h3.312
			c0.888,0,1.636-0.076,2.24-0.229c0.604-0.154,1.067-0.415,1.389-0.785c0.319-0.369,0.479-0.877,0.479-1.523
			c0-0.506-0.129-0.952-0.387-1.338c-0.257-0.388-0.613-0.676-1.07-0.865C102.932,153.264,102.08,153.171,100.811,153.171z"/>
		<path fill="#FFFFFF" d="M114.354,150.396h4.817c1.253,0,2.328,0.115,3.226,0.349c0.896,0.231,1.709,0.668,2.438,1.307
			c1.899,1.628,2.851,4.101,2.851,7.419c0,1.096-0.096,2.096-0.285,3c-0.191,0.905-0.485,1.721-0.885,2.446
			c-0.397,0.728-0.908,1.376-1.531,1.948c-0.488,0.439-1.024,0.793-1.604,1.059c-0.581,0.266-1.206,0.452-1.874,0.561
			c-0.668,0.107-1.421,0.162-2.259,0.162h-4.817c-0.673,0-1.179-0.103-1.52-0.306c-0.34-0.202-0.563-0.489-0.666-0.858
			s-0.155-0.85-0.155-1.438v-13.382c0-0.797,0.179-1.374,0.535-1.73C112.979,150.573,113.557,150.396,114.354,150.396z
			 M115.785,153.32v12.387h2.801c0.614,0,1.096-0.018,1.443-0.05c0.349-0.033,0.709-0.116,1.084-0.249
			c0.373-0.133,0.697-0.319,0.971-0.561c1.236-1.047,1.854-2.848,1.854-5.402c0-1.801-0.271-3.149-0.814-4.047
			c-0.543-0.896-1.213-1.467-2.01-1.711s-1.76-0.367-2.889-0.367H115.785L115.785,153.32z"/>
		<path fill="#FFFFFF" d="M131.085,166.702v-14.378c0-0.746,0.17-1.307,0.511-1.68c0.34-0.375,0.779-0.562,1.318-0.562
			c0.557,0,1.007,0.185,1.352,0.554c0.344,0.369,0.517,0.932,0.517,1.688v14.378c0,0.756-0.173,1.319-0.517,1.692
			c-0.345,0.373-0.795,0.562-1.352,0.562c-0.531,0-0.969-0.188-1.313-0.565C131.257,168.012,131.085,167.449,131.085,166.702z"/>
	</g>
	<g>
		<path fill="#333333" d="M76.583,74.583c0-2.643,0.849-5.321,2.546-8.034c1.696-2.712,4.173-4.959,7.428-6.74
			c3.255-1.78,7.053-2.671,11.393-2.671c4.034,0,7.594,0.745,10.684,2.233c3.089,1.489,5.474,3.513,7.156,6.072
			c1.685,2.56,2.524,5.342,2.524,8.347c0,2.365-0.479,4.438-1.438,6.218c-0.961,1.781-2.103,3.317-3.422,4.611
			c-1.322,1.293-3.692,3.471-7.117,6.531c-0.944,0.862-1.703,1.621-2.272,2.274c-0.57,0.654-0.996,1.252-1.273,1.794
			s-0.494,1.085-0.646,1.627c-0.151,0.542-0.383,1.496-0.688,2.858c-0.529,2.895-2.186,4.341-4.967,4.341
			c-1.447,0-2.664-0.474-3.651-1.419c-0.988-0.945-1.481-2.352-1.481-4.215c0-2.337,0.361-4.361,1.085-6.073
			c0.723-1.711,1.683-3.213,2.879-4.507c1.196-1.294,2.81-2.831,4.841-4.611c1.78-1.558,3.067-2.733,3.86-3.526
			s1.459-1.676,2.002-2.65c0.543-0.973,0.814-2.03,0.814-3.171c0-2.226-0.828-4.104-2.482-5.634
			c-1.655-1.53-3.793-2.295-6.406-2.295c-3.061,0-5.314,0.772-6.761,2.316c-1.447,1.544-2.671,3.819-3.672,6.823
			c-0.946,3.145-2.741,4.716-5.384,4.716c-1.558,0-2.873-0.549-3.943-1.648C77.119,77.053,76.583,75.863,76.583,74.583z
			 M96.949,120.322c-1.697,0-3.179-0.551-4.444-1.648c-1.266-1.099-1.899-2.636-1.899-4.611c0-1.752,0.612-3.228,1.836-4.424
			c1.224-1.195,2.726-1.795,4.507-1.795c1.752,0,3.227,0.6,4.424,1.795c1.195,1.196,1.795,2.672,1.795,4.424
			c0,1.947-0.627,3.479-1.879,4.592C100.037,119.766,98.59,120.322,96.949,120.322z"/>
	</g>
</g>
<rect x="55" y="146" fill="#EA5A52" width="84" height="30"/>
</svg>
